<svg width="1839" height="607" viewBox="0 0 1839 607" fill="none" xmlns="http://www.w3.org/2000/svg">
<path d="M839.823 552.218C819.152 560.457 801.67 568.053 783.76 574.43C707.111 601.713 627.916 609.223 547.031 605.479C478.814 602.333 411.473 594.737 345.823 575.05C259.995 549.308 183.24 507.56 120.286 443.301C60.6064 382.359 20.4205 310.654 5.91246 225.382C-5.45 158.641 -0.271612 93.483 20.0353 29.2241C21.4262 24.8161 23.1594 20.4937 25.1067 16.2996C32.4891 0.336564 49.7361 -4.86325 64.3297 5.02274C70.4496 9.17399 75.8419 14.5664 81.0417 19.8945C89.9861 29.0958 98.7166 38.511 107.126 48.2044C114.123 56.2502 120.885 62.0063 133.232 60.4014C144.445 58.9463 151.998 67.634 152.276 80.1091C152.405 86.4002 154.759 89.4602 159.659 92.7769C190.986 113.876 224.667 129.539 261.322 138.869C267.506 140.452 271.336 140.046 275.509 134.076C288.262 115.78 312.763 118.027 321.986 138.355C324.768 144.518 328.213 145.78 334.119 145.823C375.781 146.123 416.352 139.126 456.431 128.298C463.557 126.372 464.626 122.328 464.648 115.93C464.691 105.038 469.826 96.7356 480.033 92.3704C489.277 88.4117 498.264 89.5458 506.246 95.6443C517.245 104.054 519.492 116.08 512.666 127.827C505.69 139.832 490.625 145.459 478.557 138.847C471.025 134.717 464.905 135.873 457.501 137.949C417.936 149.076 377.857 157.207 336.43 155.709C328.79 155.431 323.206 157.014 318.84 164.482C313.341 173.876 303.883 177.214 292.948 175.331C282.206 173.491 274.995 167.885 271.422 157.121C270.33 153.869 266.457 149.867 263.248 149.225C224.495 141.437 189.895 124.404 157.391 102.599C151.442 98.6186 146.606 96.7356 138.967 99.6886C122.897 105.915 108.603 93.1193 111.877 75.6369C113.053 69.3458 111.598 65.9649 107.34 61.8564C95.5497 50.4726 84.23 38.5752 72.7392 26.8704C70.9845 25.0943 69.3368 23.2113 67.518 21.4994C58.8945 13.4537 48.2596 11.2282 41.3907 15.9358C34.2223 20.8574 30.0283 33.4182 34.7359 42.9833C41.2838 56.293 48.5164 69.624 57.6106 81.2432C86.7764 118.519 124.865 144.582 167.319 164.504C219.403 188.941 274.418 200.945 331.893 200.731C406.423 200.453 476.545 182.714 540.847 144.475C575.255 124.018 606.582 99.2606 635.919 72.0206C642.339 66.0505 648.972 60.3158 654.536 53.1474C611.782 74.0321 569.028 94.9167 526.296 115.78C519.62 106.279 524.991 104.418 529.934 102.149C555.483 90.4231 581.311 79.2104 606.475 66.6925C636.112 51.9705 665.171 36.093 696.626 19.5949C685.606 32.2413 675.057 42.8762 666.198 54.7736C644.757 83.5971 621.454 111.479 603.651 142.485C556.275 224.975 562.245 306.224 620.341 381.075C673.666 449.785 740.3 503.58 818.404 542.589C824.331 545.542 830.515 547.982 839.909 552.154L839.823 552.218ZM553.707 151.879C550.326 159.047 546.967 166.216 543.03 174.561C571.832 164.547 580.648 139.618 594.321 118.84C593.23 117.77 592.139 116.7 591.047 115.63C578.508 127.827 565.947 140.024 553.408 152.243V145.823C539.306 153.569 525.954 160.588 512.965 168.206C508.878 170.602 505.711 174.604 502.116 177.878C500.34 177.279 498.2 175.695 496.809 176.209C478.193 182.821 459.641 189.625 441.153 196.644C439.034 197.457 437.493 199.832 435.696 201.48C432.422 201.095 429.063 200.025 425.896 200.431C398.442 203.919 371.009 207.621 343.598 211.452C340.966 211.815 337.093 212.65 336.216 214.447C331.444 224.141 327.421 234.198 322.628 245.325C327.678 245.881 330.438 246.63 333.134 246.395C355.731 244.448 378.392 242.693 400.881 239.89C405.246 239.355 409.868 235.118 412.95 231.416C421.06 221.659 428.378 211.259 436.017 201.095C430.732 211.537 425.468 221.958 420.182 232.4C421.124 233.577 422.087 234.754 423.028 235.931C437.75 230.475 452.772 225.66 467.066 219.262C472.929 216.63 477.979 211.131 482.152 205.931C489.406 196.879 495.697 187.036 502.394 177.514C497.708 187.165 493.022 196.837 487.801 207.621C507.359 203.748 531.089 186.202 539.499 171.522C543.479 164.568 548.914 158.427 553.686 151.9L553.707 151.879ZM80.7207 129.924C79.2442 127.249 78.1743 124.232 76.2057 121.986C67.9674 112.677 59.4295 103.604 51.0414 94.4246C48.5592 91.707 46.2053 88.9038 43.2952 85.5443C36.7901 102.235 37.2181 105.594 47.4892 116.722C55.9415 125.88 64.672 134.824 74.3226 144.967C77.3612 137.927 79.1586 133.755 80.9775 129.582C77.4468 143.02 79.8434 153.89 93.5382 160.524C96.962 162.171 99.5939 165.424 102.804 167.628C112.839 174.604 122.982 181.451 133.874 188.876C137.533 181.387 140.293 175.716 143.054 170.046C142.647 172.849 142.733 175.866 141.727 178.455C137.426 189.604 142.305 195.467 152.319 199.768C166.977 206.059 181.164 213.442 195.779 219.861C214.995 228.313 215.102 228.099 223.725 208.862C224.838 206.38 225.779 203.812 227.02 200.667C209.731 194.611 193.083 188.898 176.521 182.97C165.244 178.926 154.095 174.561 142.861 170.388C141.813 169.019 141.021 167.264 139.673 166.344C122.062 154.425 104.409 142.592 86.648 130.909C85.1073 129.903 82.7321 130.202 80.7207 129.924ZM521.674 576.163C521.738 574.879 521.803 573.595 521.867 572.311C505.091 552.646 488.379 532.917 471.388 513.423C469.805 511.605 466.467 510.642 463.856 510.449C442.244 508.908 420.61 507.625 398.977 506.383C396.452 506.234 393.884 506.918 388.855 507.517C399.768 521.148 408.884 533.302 418.813 544.772C449.305 579.993 438.842 575.179 485.961 576.12C497.858 576.356 509.777 576.163 521.674 576.163ZM462.765 504.714C460.839 499.836 460.518 498.466 459.833 497.332C448.899 479.4 438.2 461.297 426.666 443.772C424.633 440.669 419.198 438.722 415.111 438.294C403.085 437.032 390.952 436.882 378.884 436.154C367.842 435.491 356.801 434.635 345.781 433.843C345.075 434.849 344.368 435.855 343.662 436.861C355.774 455.991 367.821 475.163 380.103 494.165C381.323 496.048 384.019 497.867 386.202 498.081C410.896 500.413 435.632 502.446 462.786 504.757L462.765 504.714ZM295.687 487.039C294.682 488.216 293.676 489.415 292.67 490.592C308.954 510.599 323.847 532.083 342.229 549.95C350.082 557.589 365.253 557.718 377.108 561.249C380.852 562.361 384.597 563.624 388.427 564.373C401.78 566.94 415.154 569.316 431.202 572.269C428.592 568.032 427.864 566.513 426.837 565.229C411.644 546.377 396.623 527.375 380.981 508.887C378.135 505.506 372.978 503.281 368.506 502.211C355.709 499.172 342.699 497.075 329.818 494.443C318.412 492.111 307.071 489.543 295.709 487.082L295.687 487.039ZM370.945 496.433C357.935 473.858 347.172 454.664 335.766 435.855C333.883 432.731 329.518 430.227 325.816 429.221C310.046 425.006 294.083 421.518 278.226 417.645C269.475 415.505 260.787 413.087 248.654 409.899C255.437 423.529 261.728 433.843 265.858 444.949C274.91 469.364 292.157 482.096 317.556 485.862C334.589 488.387 351.387 492.496 370.945 496.433ZM315.524 364.342C322.243 382.595 327.999 397.424 333.113 412.467C336.237 421.646 341.33 426.504 351.644 426.504C359.754 426.504 367.842 428.943 375.995 429.564C389.882 430.591 403.834 431.019 418.577 431.746C411.131 410.626 404.84 391.753 397.586 373.265C396.537 370.569 390.888 368.45 387.25 368.236C373.042 367.423 358.769 367.723 344.54 367.124C336.173 366.781 327.828 365.562 315.545 364.321L315.524 364.342ZM481.253 510.299C480.525 511.498 479.819 512.696 479.092 513.894C497.237 533.174 515.255 552.582 533.764 571.541C535.669 573.488 540.526 573.553 543.779 573.018C558.501 570.642 573.158 567.818 587.795 564.95C592.032 564.116 596.119 562.597 598.708 561.848C586.939 548.923 573.929 537.775 564.899 523.994C551.311 503.238 533.786 502.082 512.601 506.983C502.437 509.336 491.695 509.251 481.232 510.278L481.253 510.299ZM225.63 340.205C228.433 350.733 231.065 359.057 232.841 367.573C237.634 390.576 248.29 407.459 274.246 409.578C276.985 409.792 279.553 411.632 282.313 412.274C296.928 415.719 311.586 419.036 327.806 422.759C321.002 402.11 315.267 383.9 308.783 365.947C307.906 363.529 303.476 361.774 300.374 360.94C289.418 357.965 278.226 355.825 267.292 352.787C254.111 349.149 241.1 344.934 225.63 340.226V340.205ZM432.379 439.685C442.351 455.734 451.852 468.701 458.87 482.91C467.173 499.729 479.113 505.913 497.28 502.703C510.633 500.349 524.221 499.194 538.943 497.375C524.092 475.014 510.889 454.856 497.237 435.02C495.954 433.159 491.695 432.388 488.978 432.624C479.798 433.458 470.682 435.084 461.524 436.261C452.879 437.374 444.191 438.316 432.379 439.706V439.685ZM391.466 362.823C391.466 343.714 391.808 327.772 391.081 311.873C390.974 309.648 385.753 305.882 382.821 305.818C361.894 305.347 340.945 305.882 320.017 305.561C313.683 305.454 310.431 307.059 311.009 313.756C312.036 325.804 312.72 337.872 314.368 349.834C314.753 352.594 318.177 356.874 320.509 357.109C344.433 359.442 368.42 361.068 391.466 362.823ZM403.385 369.349C411.751 389.763 419.391 408.701 427.394 427.467C428.164 429.264 431.331 431.34 433.192 431.19C452.066 429.692 470.918 427.766 491.631 425.776C484.655 409.471 478.835 396.204 473.314 382.83C470.211 375.362 469.569 363.914 464.22 361.111C458.121 357.922 448.021 362.223 439.676 363.486C428.592 365.176 417.529 367.059 403.363 369.349H403.385ZM271.101 470.306C260.124 448.159 250.216 427.745 239.774 407.631C238.362 404.892 234.467 403.137 231.364 401.639C215.979 394.235 200.422 387.174 185.037 379.813C177.911 376.41 171 372.537 164.003 368.878C163.318 369.52 162.612 370.162 161.927 370.804C166.356 381.525 170.786 392.245 175.194 402.966C183.817 423.957 195.972 441.397 218.611 449.614C230.958 454.107 242.705 460.292 254.86 465.363C259.589 467.332 264.703 468.38 271.101 470.285V470.306ZM501.795 431.169C516.967 452.267 530.918 471.868 545.212 491.212C546.582 493.074 550.455 494.679 552.573 494.122C568.237 490.099 583.729 485.477 598.601 481.241C598.601 478.159 598.879 477.26 598.558 476.811C584.435 457.167 570.312 437.524 555.954 418.051C554.756 416.404 551.546 414.628 549.963 415.12C534.813 419.87 519.812 425.091 501.795 431.169ZM666.647 540.471C646.426 521.94 628.43 505.335 610.199 488.987C608.444 487.403 604.828 486.376 602.645 487.018C587.174 491.597 571.853 496.69 552.53 502.874C573.094 522.24 591.561 539.701 610.22 556.969C611.418 558.082 614.371 558.296 616.083 557.739C632.474 552.304 648.78 546.612 666.647 540.471ZM305.787 355.483C304.974 343.65 304.118 335.561 303.926 327.473C303.369 305.368 303.476 305.39 281.479 300.875C279.382 300.447 277.328 299.869 275.273 299.313C256.85 294.348 238.404 289.363 218.183 283.885C218.718 292.101 219.788 299.398 219.531 306.631C218.846 325.761 228.176 335.411 246.514 339.392C265.794 343.586 284.646 349.641 305.809 355.483H305.787ZM141.513 296.809C142.904 304.791 143.632 310.269 144.808 315.64C153.261 354.071 153.132 354.349 187.562 373.436C201.599 381.225 216.471 387.516 230.958 394.471C228.262 376.753 223.533 361.56 219.617 346.175C217.691 338.643 214.053 333.892 206.756 330.725C195.009 325.632 183.71 319.513 172.348 313.607C162.74 308.599 153.304 303.229 141.513 296.788V296.809ZM612.873 484.108C634.036 501.547 653.081 517.361 672.339 532.917C673.88 534.158 677.411 534.65 679.058 533.752C692.368 526.562 705.442 518.966 719.693 510.856C698.659 493.159 679.465 476.918 660.099 460.891C658.922 459.928 655.884 459.992 654.386 460.805C641.654 467.738 629.051 474.949 612.852 484.108H612.873ZM404.369 247.786C384.832 249.84 366.922 252.472 348.926 253.435C316.936 255.125 316.914 254.697 312.956 287.073C312.827 288.121 312.678 289.191 312.421 290.218C310.987 296.146 313.79 299.505 319.397 299.462C341.394 299.291 363.413 298.928 385.389 298.072C388.042 297.965 392.108 294.862 392.857 292.358C397.029 278.128 400.368 263.642 404.369 247.807V247.786ZM201.364 449.057C202.712 452.888 202.947 454.3 203.632 455.413C225.266 490.977 247.798 525.513 292.478 535.613C295.901 536.384 299.026 538.374 302.406 539.486C310.003 541.99 317.663 544.28 325.303 546.676C315.823 531.12 303.969 518.217 295.088 503.516C284.667 486.269 270.031 476.704 251.671 470.285C235.387 464.571 219.788 456.932 201.385 449.057H201.364ZM519.385 339.734C506.653 344.442 494.199 349.663 481.36 353.579C473.785 355.89 472.629 359.399 475.347 366.032C482.066 382.466 488.764 398.921 495.033 415.526C497.494 422.032 501.71 423.422 507.573 421.561C519.427 417.795 531.346 414.093 542.901 409.556C544.998 408.743 547.416 403.287 546.582 401.275C538.065 381.011 528.907 361.004 519.385 339.734ZM312.057 254.997C281.779 249.155 252.099 243.421 222.484 237.707C211.55 265.225 214.973 273.528 240.844 283.007C241.507 283.243 242.149 283.585 242.834 283.756C262.67 288.549 282.506 293.321 302.749 298.221C306.173 282.301 308.997 269.163 312.057 254.997ZM651.668 454.407C633.394 433.073 616.875 413.643 600.099 394.406C598.836 392.951 595.284 391.667 593.915 392.395C582.809 398.258 571.96 404.635 558.458 412.317C574.485 433.18 589.207 452.631 604.4 471.697C606.026 473.751 611.204 475.206 613.43 474.179C626.14 468.188 638.466 461.361 651.668 454.428V454.407ZM457.651 290.111C439.462 294.584 422.194 298.521 405.139 303.336C402.55 304.063 399.383 308.856 399.405 311.745C399.512 325.226 400.539 338.728 401.459 352.209C401.823 357.559 404.476 360.961 410.446 360.084C425.917 357.794 441.409 355.654 456.795 352.873C458.977 352.487 462.294 348.721 462.187 346.688C461.053 327.965 459.277 309.284 457.651 290.133V290.111ZM683.423 541.156C711.391 558.617 735.143 581.363 770.279 565.293C776.035 562.661 782.604 561.848 788.703 559.9C791.72 558.938 794.502 557.268 797.925 555.685C774.644 542.225 752.882 529.515 730.906 517.147C728.959 516.055 725.278 516.141 723.31 517.254C710.685 524.486 698.317 532.147 683.402 541.156H683.423ZM213.497 326.189C212.598 310.889 212.341 298.457 210.843 286.196C210.437 282.836 206.949 278.749 203.761 277.016C190.986 270.04 177.719 263.963 164.752 257.351C155.465 252.622 146.349 247.55 136.078 242.051C135.35 268.563 135.094 292.636 165.308 302.03C170.272 303.571 174.466 307.487 179.238 309.841C189.98 315.147 200.85 320.155 213.518 326.146L213.497 326.189ZM471.538 349.62C480.162 346.71 487.202 344.42 494.177 341.938C517.608 333.55 517.523 333.529 515.383 309.006C514.099 294.284 513.051 279.541 511.767 263.235C496.874 270.725 482.986 277.615 469.27 284.805C467.708 285.618 466.253 288.186 466.146 290.004C465.054 309.541 465.311 328.971 471.538 349.62ZM228.497 202.529C227.106 207.578 225.416 213.634 223.768 219.711C221.949 226.452 224.174 230.731 231.321 232.015C257.106 236.68 282.87 241.452 308.676 245.881C311.073 246.288 315.138 245.282 316.23 243.549C322.328 233.791 327.763 223.606 333.348 213.741C298.234 209.975 263.932 206.316 228.476 202.529H228.497ZM556.896 317.48C548.786 322.359 539.585 327.473 530.94 333.379C529.249 334.534 528.35 339.199 529.228 341.424C536.696 360.533 544.399 379.577 552.809 398.28C553.793 400.441 560.105 402.324 562.695 401.275C570.847 397.959 578.38 393.08 586.233 388.95C591.561 386.147 591.646 382.766 588.886 377.716C578.401 358.457 568.279 339.006 556.896 317.48ZM471.709 225.746C452.729 232.122 435.589 237.836 418.535 243.741C416.716 244.383 414.576 245.967 413.848 247.657C407.386 262.572 401.502 277.679 402.079 297.965C421.316 292.016 439.056 286.645 456.666 280.91C458.207 280.418 459.576 277.786 460.026 275.903C463.92 259.79 467.579 243.634 471.709 225.746ZM209.303 273.442C211.1 259.983 212.063 250.867 213.647 241.837C214.695 235.781 212.341 232.807 206.928 230.517C189.595 223.199 172.412 215.496 155.208 207.857C150.094 205.588 145.044 203.128 138.239 199.939C137.233 209.504 135.971 217.486 135.736 225.51C135.65 228.656 136.87 233.492 139.095 234.776C161.52 247.572 184.267 259.769 209.303 273.442ZM224.239 503.217C224.966 502.617 225.694 501.997 226.4 501.398C215.979 485.82 205.323 470.392 195.223 454.621C189.06 445.013 183.304 435.684 172.605 429.799C162.055 424 152.597 416.19 142.69 409.235C136.763 405.084 130.835 400.89 124.48 396.396C136.249 453.466 180.757 477.838 224.239 503.217ZM172.947 424.086C174.103 422.994 175.258 421.903 176.392 420.812C160.258 390.961 156.556 353.129 119.772 336.481C113.845 333.807 109.416 327.879 104.195 323.6C102.226 321.995 99.9577 320.732 97.8179 319.32C97.0048 319.834 96.1916 320.326 95.3571 320.839C99.5298 333.914 103.446 347.052 107.939 359.998C110.379 366.995 112.069 375.662 117.14 380.07C135.029 395.562 154.224 409.535 172.947 424.086ZM82.9033 251.98C79.8862 290.732 107.768 331.945 144.359 344.356C140.721 327.002 137.169 309.776 133.425 292.594C133.082 290.989 131.905 289.234 130.6 288.228C115.129 276.352 99.5725 264.626 82.9033 251.98ZM466.017 274.127C467.173 274.726 468.328 275.347 469.484 275.946C474.983 273.699 480.418 271.26 485.982 269.205C504.47 262.379 518.208 251.937 517.972 229.79C517.929 226.024 519.727 222.193 520.818 218.449C522.872 211.452 525.034 204.497 527.152 197.5C526.425 196.922 525.697 196.344 524.969 195.745C510.312 204.775 491.61 210.81 482.087 223.627C472.137 237.044 470.982 257.008 465.996 274.106L466.017 274.127ZM524.884 328.778C534.363 323.343 541.639 318.935 549.128 314.955C554.585 312.066 556.018 308.685 555.013 302.116C552.252 283.842 550.904 265.375 548.935 246.994C548.679 244.662 547.994 242.372 547.48 239.868C519.492 254.013 517.587 257.094 518.721 286.559C518.892 291.181 519.128 295.846 519.834 300.404C521.225 309.348 522.979 318.25 524.862 328.778H524.884ZM721.427 576.441C721.641 575.05 721.833 573.681 722.047 572.29C714.472 567.989 705.913 564.801 699.515 559.151C682.503 544.151 665.278 544.857 646.34 554.786C638.53 558.895 629.564 560.799 621.133 563.688C620.919 564.886 620.684 566.106 620.47 567.304C630.163 572.654 639.814 582.369 649.571 582.497C673.495 582.818 697.461 578.731 721.427 576.42V576.441ZM79.3512 198.634C72.9746 214.469 77.2756 236.723 88.2101 246.438C96.6838 253.97 105.457 261.202 114.38 268.221C118.895 271.773 123.988 274.576 129.359 278.064C132.44 253.007 132.312 230.945 106.163 219.433C102.697 217.892 99.8721 214.833 96.8122 212.436C91.0774 207.942 85.3641 203.406 79.3512 198.655V198.634ZM47.3395 267.986C47.425 305.668 77.3398 356.853 103.039 363.914C96.5126 343.907 92.7679 323.086 83.0745 305.561C75.2427 291.374 60.2426 281.124 47.3395 267.986ZM126.128 227.671C128.161 224.783 129.081 224.012 129.295 223.092C135.008 198.869 134.409 197.436 114.273 183.142C102.846 175.032 91.5054 166.772 80.1216 158.598C79.0517 158.983 78.0031 159.39 76.9332 159.775C77.8747 170.003 75.0288 183.634 80.5281 189.754C93.5382 204.24 110.507 215.132 126.106 227.671H126.128ZM35.9984 206.701C38.9086 224.975 35.4634 242.222 46.2267 255.917C55.9843 268.328 67.4966 279.348 78.2385 290.989C79.1158 251.274 69.0587 231.908 35.977 206.701H35.9984ZM564.299 168.955C553.879 179.846 535.99 182.864 531.325 201.116C527.43 216.309 521.995 230.988 523.044 247.893C533.037 241.43 545.49 235.589 549.428 226.174C556.96 208.178 559.613 188.149 564.299 168.955ZM73.2955 230.368C71.5409 215.282 73.2527 200.752 67.6892 190.011C61.0985 177.343 48.2168 167.97 37.1967 156.266C26.9897 182.2 41.9685 212.521 73.2955 230.368ZM129.894 432.902C119.409 395.091 98.0319 365.134 65.8275 340.975C75.1358 381.311 102.247 407.331 129.894 432.902ZM67.5822 180.724C69.0801 180.21 70.5779 179.697 72.0758 179.204C72.0758 169.618 75.6493 157.763 71.3055 150.937C63.1956 138.163 50.485 128.319 39.7003 117.257C38.4806 117.642 37.2823 118.005 36.0626 118.391C36.0626 127.956 32.5747 139.639 36.8115 146.615C44.6647 159.454 57.0543 169.511 67.5608 180.745L67.5822 180.724ZM32.5105 238.606C35.8272 211.345 24.1224 180.595 4.94955 166.686C3.96523 194.761 9.55017 219.861 32.5105 238.606ZM12.5887 224.954C12.8883 250.054 31.355 298.735 48.1526 305.454C41.9257 275.668 38.4378 245.068 12.5887 224.954ZM26.8186 183.655C31.9969 158.748 26.4762 137.735 6.83259 120.595C1.46163 145.652 4.56439 167.435 26.8186 183.655ZM545.662 579.694C545.769 580.721 545.876 581.727 545.983 582.754H629.714C618.587 572.055 608.936 564.094 592.738 569.786C580.541 574.066 567.103 574.772 554.242 577.212C551.332 577.768 548.508 578.859 545.64 579.715L545.662 579.694ZM13.8298 79.5956C3.83685 105.06 7.70992 120.295 27.6317 135.723C35.3564 113.983 24.4219 97.2919 13.8298 79.5956ZM33.0668 97.1208C40.8986 83.1691 36.2338 63.8251 22.0039 48.8036C12.6743 68.1476 14.6857 77.3702 33.0668 97.1208Z" fill="#F8791D"/>
<path d="M1292.12 96.9065C1311.91 96.9065 1329.69 96.4786 1347.43 97.2703C1350.94 97.4201 1355.31 101.507 1357.49 104.931C1369.43 123.505 1380.79 142.442 1392.41 161.23C1394.62 164.782 1397.05 168.163 1400.29 172.934C1403.13 168.997 1405.29 166.322 1407.11 163.434C1418.8 144.71 1430.78 126.137 1441.86 107.049C1446.38 99.2818 1451.56 96.2431 1460.59 96.6925C1476.1 97.4628 1491.68 96.9065 1509.35 96.9065C1498.8 112.656 1489.37 126.714 1479.95 140.773C1465.27 162.663 1450.85 184.746 1435.81 206.38C1431.55 212.5 1432.28 216.758 1436.21 222.536C1461.08 259.041 1485.75 295.696 1510.17 332.48C1528.03 359.399 1536.19 388.821 1528.44 420.833C1521.4 449.871 1503.94 470.391 1474.56 479.036C1447.6 486.975 1423.1 481.968 1401.91 463.159C1388.37 451.133 1381.69 435.041 1380.98 417.687C1379.79 387.88 1380.66 358.008 1380.66 326.231C1400.67 352.145 1419.82 376.945 1439.83 402.901C1429.37 403.501 1420.74 403.993 1412.18 404.463C1412.59 426.375 1426.48 444.35 1446.16 449.592C1466.64 455.049 1491.74 444.735 1502.53 426.311C1519 398.151 1510.98 363.507 1497.01 338.707C1496 336.909 1493.13 336.01 1490.95 335.112C1489.71 334.598 1488.08 334.684 1486.71 334.962C1459.64 340.804 1443.08 329.291 1432.02 304.726C1425.66 290.603 1415.46 278.192 1406.92 265.032C1405.06 262.165 1402.92 259.448 1400.01 255.425C1384.64 279.155 1369.79 301.303 1355.88 324.006C1350.79 332.33 1345.01 335.668 1335.28 335.09C1321.11 334.256 1306.84 334.876 1290.64 334.876C1292.91 330.597 1294.24 327.515 1296.05 324.776C1318.87 290.304 1341.59 255.81 1364.72 221.551C1368.55 215.881 1368.32 211.986 1364.53 206.423C1341.7 172.827 1319.25 138.975 1296.72 105.188C1295.37 103.176 1294.36 100.929 1292.12 96.8423V96.9065Z" fill="#F8791D"/>
<path d="M739.166 334.898C723.417 334.898 709.251 334.876 695.085 334.898C687.489 334.898 689.158 329.27 689.137 324.969C689.03 296.809 689.008 268.649 689.008 240.489C689.008 196.301 689.201 152.093 688.944 107.905C688.901 100.052 690.271 96.3503 699.387 96.6285C732.49 97.6984 765.807 95.9009 798.674 99.0465C840.037 103.005 865.116 136.686 863.254 180.445C861.521 221.402 832.013 251.958 791.634 254.098C777.404 254.847 763.132 254.719 748.881 254.612C741.734 254.548 738.845 256.987 738.995 264.605C739.423 287.372 739.144 310.161 739.144 334.898H739.166ZM739.144 176.273H739.102C739.102 185.538 739.401 194.825 738.995 204.069C738.695 210.724 741.498 212.821 747.789 212.586C757.397 212.265 767.026 212.543 776.656 212.479C798.867 212.329 812.733 199.254 813.268 178.049C813.824 155.944 800.814 141.8 778.325 140.687C768.011 140.174 757.654 140.88 747.319 140.452C740.407 140.174 738.845 143.469 739.037 149.525C739.337 158.427 739.123 167.35 739.123 176.251L739.144 176.273Z" fill="#F8791D"/>
<path d="M1260.38 94.938C1266.38 121.408 1253.45 140.73 1225.76 144.646C1215.55 146.08 1205.33 147.578 1195.12 149.011C1171 152.414 1151.08 173.084 1153.09 200.581C1164.07 188.32 1176.42 180.574 1192.1 177.428C1238.73 168.12 1281.53 203.876 1280.09 251.701C1278.81 294.305 1257.35 324.263 1219.79 333.593C1186.03 342.002 1153.8 338.985 1130.03 310.482C1121.04 299.719 1114.17 285.489 1111.11 271.794C1103.19 236.145 1104.48 200.196 1117.36 165.574C1128.42 135.809 1149.39 116.251 1181.02 109.788C1207.36 104.396 1233.87 99.8596 1260.38 94.9166V94.938ZM1154.14 255.147C1153.86 282.814 1169.21 299.976 1194.39 300.126C1217.25 300.275 1234.3 281.745 1234.49 256.559C1234.68 230.539 1217.99 211.986 1194.28 211.901C1170.58 211.815 1154.4 229.212 1154.14 255.125V255.147Z" fill="#F8791D"/>
<path d="M1594.28 337.572C1541.47 337.123 1507.94 302.629 1508.11 249.668C1508.28 200.025 1545.13 162.257 1600.74 164.675C1648.36 166.75 1680.99 201.501 1680.58 253.263C1680.17 304.02 1645.4 338 1594.3 337.572H1594.28ZM1636.5 252.75C1634.04 242.949 1632.8 234.069 1629.59 225.938C1623.3 209.996 1609.37 201.715 1592.61 202.528C1576.41 203.32 1563 213.719 1557.8 229.426C1552.94 244.105 1553.15 258.741 1557.67 273.463C1562.29 288.613 1572.48 297.708 1587.95 299.89C1604.81 302.265 1619.62 297.836 1627.45 281.445C1631.77 272.372 1633.65 262.144 1636.52 252.771L1636.5 252.75Z" fill="#F8791D"/>
<path d="M927.684 167.628C927.684 183.227 928.005 196.729 927.577 210.231C927.321 218.448 930.102 221.08 938.64 221.359C954.903 221.894 971.85 221.722 987.193 226.259C1013.34 233.962 1024.02 254.74 1021.52 285.318C1019.59 308.835 1001.77 330.147 977.628 332.351C948.269 335.005 918.612 334.213 889.082 334.876C881.7 335.047 882.812 329.398 882.791 325.012C882.684 290.796 882.705 256.559 882.705 222.343C882.705 207.364 883.09 192.385 882.705 177.428C882.513 170.088 884.717 167.157 892.377 167.499C903.676 168.034 915.038 167.628 927.684 167.628ZM946.558 255.831V255.724C943.369 255.724 940.159 255.938 936.971 255.681C930.744 255.146 927.706 257.564 927.834 264.069C928.048 273.292 927.535 282.536 928.155 291.737C928.348 294.498 931.215 299.291 932.991 299.355C942.834 299.74 952.934 300.104 962.521 298.264C973.776 296.103 978.805 287.008 977.778 274.94C976.9 264.647 969.026 256.837 958.241 255.917C954.368 255.574 950.431 255.874 946.536 255.874L946.558 255.831Z" fill="#F8791D"/>
<path d="M1696.65 215.218C1699.97 192.878 1711.25 178.883 1730.2 171.351C1752.16 162.621 1774.84 163.049 1797.37 168.612C1814.77 172.913 1828.1 183.184 1832.04 201.202C1836.23 220.396 1828.31 235.289 1809.55 244.918C1812.07 246.866 1813.42 248.256 1815.05 249.091C1840.73 262.294 1845.88 295.846 1825.62 316.645C1814.06 328.5 1799.6 333.764 1783.81 336.011C1764.18 338.814 1744.73 338.3 1726.01 330.79C1705.53 322.594 1693.85 305.775 1694.66 285.019C1706.28 285.019 1717.99 284.74 1729.65 285.233C1732.13 285.34 1735.25 287.672 1736.79 289.876C1745.8 302.651 1768.01 307.829 1781.58 299.89C1789.46 295.29 1793.01 288.4 1791.7 279.284C1790.4 270.339 1784.81 265.61 1776.15 264.113C1774.39 263.813 1772.57 263.085 1770.88 263.299C1759.31 264.755 1757.83 258.656 1757.83 248.727C1757.83 238.691 1760.5 235.161 1770.9 235.311C1782.78 235.503 1789.58 227.971 1789.41 217.743C1789.26 207.557 1782.35 201.223 1770.48 200.153C1758.47 199.062 1747.75 200.795 1740.41 211.879C1739.28 213.591 1736.41 215.004 1734.29 215.046C1722.24 215.346 1710.2 215.196 1696.67 215.196L1696.65 215.218Z" fill="#F8791D"/>
<path d="M1084.45 168.441C1084.45 208.541 1084.45 247.657 1084.45 286.773C1084.45 299.933 1084.81 313.136 1084.04 326.253C1083.87 329.228 1079.91 334.235 1077.43 334.406C1065.45 335.262 1053.38 334.791 1040.39 334.791V168.441H1084.45Z" fill="#F8791D"/>
<path d="M933.483 478.202C928.112 500.028 909.196 515.478 886.428 516.954C855.101 518.987 830.065 504.393 821.506 479.101C810.122 445.441 819.324 410.883 844.295 393.572C865.137 379.128 897.834 380.198 917.456 395.968C926.422 403.18 930.894 411.118 932.777 423.936C928.519 424.942 924.175 426.076 919.788 426.975C914.225 428.13 910.416 427.381 906.842 421.368C895.009 401.553 867.084 400.205 852.384 418.03C838.989 434.271 838.347 465.277 851.1 482.203C863.404 498.53 893.276 500.435 904.21 483.509C911.678 471.932 919.125 473.73 928.711 476.447C930.359 476.918 931.942 477.624 933.526 478.202H933.483Z" fill="#F8791D"/>
<path d="M1165.29 422.502V477.218C1166.66 478.288 1168.05 479.336 1169.42 480.406C1170.43 477.838 1171 474.992 1172.48 472.767C1182.37 457.938 1192.96 443.558 1202.27 428.387C1207.96 419.121 1215.77 422.331 1223.09 422.952C1231.3 423.658 1228.89 430.698 1228.93 435.555C1229.14 457.296 1228.99 479.058 1228.97 500.82C1228.97 510.121 1224.29 514.743 1214.91 514.686C1212.79 514.686 1210.65 514.472 1206.5 514.237V458.708C1205.35 458.387 1204.21 458.088 1203.06 457.767C1192.62 473.131 1181.55 488.109 1171.95 503.965C1166.51 512.91 1159.94 515.863 1150.05 514.814C1144.62 514.237 1142.67 512.289 1142.72 506.876C1142.87 481.925 1142.87 456.954 1142.57 432.003C1142.48 425.669 1144.83 422.631 1151.02 422.481C1155.21 422.395 1159.41 422.481 1165.29 422.481V422.502Z" fill="#F8791D"/>
<path d="M971.166 474.243C970.738 485.327 974.418 492.26 982.464 496.176C991.237 500.434 1001.44 502.018 1008.48 494.678C1017.41 485.348 1025.3 489.414 1034.85 492.902C1026.76 509.507 1013.66 516.547 996.201 516.996C977.136 517.489 961.772 510.748 952.998 493.373C945.445 478.373 945.53 462.388 951.672 446.768C959.675 426.375 981.779 415.847 1004.35 421.304C1026.33 426.61 1038.72 444.606 1036.77 467.353C1036.26 473.366 1033.31 474.157 1028.47 474.136C1013.53 474.05 998.577 474.179 983.641 474.221C979.81 474.221 975.98 474.221 971.144 474.221L971.166 474.243ZM971.465 460.334C983.598 460.334 994.853 460.248 1006.09 460.355C1014.6 460.441 1015.89 456.161 1012.81 449.464C1008.33 439.727 1000.18 436.603 990.039 437.716C979.682 438.85 973.562 445.591 971.465 460.313V460.334Z" fill="#F8791D"/>
<path d="M1075.95 514.772C1075.95 494.786 1076.04 476.041 1075.93 457.317C1075.82 441.975 1075.72 442.018 1059.97 441.889C1055.8 441.846 1051.62 441.504 1046.87 441.269V422.31C1062.43 422.31 1077.62 422.31 1092.81 422.31C1101.69 422.31 1110.6 422.566 1119.48 422.203C1125.36 421.946 1128.51 424.064 1127.86 430.013C1127.29 435.192 1129.06 441.418 1119.86 442.018C1098.51 443.43 1098.53 443.858 1098.57 465.984C1098.57 477.71 1097.91 489.5 1098.76 501.162C1099.56 511.733 1096.45 516.697 1085.3 514.836C1082.91 514.429 1080.38 514.772 1075.97 514.772H1075.95Z" fill="#F8791D"/>
</svg>
